<svg id="Calque_1" data-name="Calque 1" xmlns="http://www.w3.org/2000/svg" xmlns:xlink="http://www.w3.org/1999/xlink" viewBox="0 0 1280 353"><defs><style>.cls-1{fill:url(#Dégradé_sans_nom_9);}.cls-2{font-size:139.38px;font-family:Montserrat-ExtraBold, Montserrat;font-weight:800;}.cls-2,.cls-3{fill:#fff;}</style><linearGradient id="Dégradé_sans_nom_9" x1="635.73" y1="8.91" x2="641.18" y2="337.5" gradientUnits="userSpaceOnUse"><stop offset="0" stop-color="#1e4960"/><stop offset="0.15" stop-color="#195b6f"/><stop offset="0.73" stop-color="#0798a3"/><stop offset="1" stop-color="#00b0b8"/></linearGradient></defs><rect class="cls-1" x="24.05" y="23.72" width="1228.95" height="307.56" rx="56.63"/><text class="cls-2" transform="translate(314.6 230.93)">NEXTSound</text><path class="cls-3" d="M196.1,106.4H162.73c-40.23,0-70.56,28.15-70.56,65.48V206a18,18,0,0,0,18,18h0a3.86,3.86,0,0,1,3.86,3.86v6.68h7.26v2.74c0,6.67,5.15,12.5,11.82,12.7a12.2,12.2,0,0,0,12.57-12.19V205.71c0-6.68-5.15-12.5-11.82-12.7a12.2,12.2,0,0,0-12.57,12.19v.57h-7.26v9.36A3.86,3.86,0,0,1,110.2,219h0a13,13,0,0,1-13-13V171.88c0-35,27.54-60.41,65.49-60.41H196.1c38,0,65.49,25.41,65.49,60.41V206a13,13,0,0,1-13,13h0a3.86,3.86,0,0,1-3.86-3.86v-9.36H237.5v-.06c0-6.67-5.14-12.5-11.81-12.7a12.2,12.2,0,0,0-12.57,12.19v32.14c0,6.67,5.14,12.5,11.82,12.7a12.2,12.2,0,0,0,12.56-12.19V234.6h7.26v-6.68a3.86,3.86,0,0,1,3.86-3.86h0a18,18,0,0,0,18-18V171.88C266.66,134.55,236.33,106.4,196.1,106.4Z"/><path class="cls-3" d="M179.61,124.79a4.58,4.58,0,0,0-4.58,4.58v70.21a4.59,4.59,0,0,0,9.17,0V129.37A4.58,4.58,0,0,0,179.61,124.79Z"/><path class="cls-3" d="M193.17,138.47a4.59,4.59,0,0,0-4.59,4.58v49.28a4.59,4.59,0,0,0,9.17,0V143.05A4.58,4.58,0,0,0,193.17,138.47Z"/><path class="cls-3" d="M166.26,135a4.58,4.58,0,0,0-4.58,4.58v49.28a4.59,4.59,0,0,0,9.17,0V139.54A4.59,4.59,0,0,0,166.26,135Z"/><path class="cls-3" d="M152.71,147.53a4.58,4.58,0,0,0-4.58,4.58v33.31a4.58,4.58,0,0,0,9.16,0V152.11A4.58,4.58,0,0,0,152.71,147.53Z"/><path class="cls-3" d="M205.92,142.94a4.58,4.58,0,0,0-4.58,4.59v33.3a4.59,4.59,0,1,0,9.17,0v-33.3A4.59,4.59,0,0,0,205.92,142.94Z"/><path class="cls-3" d="M222.86,173.85V159.79a4.59,4.59,0,0,0-9.17,0v14.06a4.59,4.59,0,0,0,9.17,0Z"/><path class="cls-3" d="M235.22,168.35v-3.06a4.59,4.59,0,1,0-9.17,0v3.06a4.59,4.59,0,1,0,9.17,0Z"/><path class="cls-3" d="M122.42,165.29v3.06a4.58,4.58,0,1,0,9.16,0v-3.06a4.58,4.58,0,1,0-9.16,0Z"/><path class="cls-3" d="M134.77,159.79v14.06a4.59,4.59,0,0,0,9.17,0V159.79a4.59,4.59,0,0,0-9.17,0Z"/></svg>