<svg id="visual" viewBox="0 0 900 600" width="900" height="600" xmlns="http://www.w3.org/2000/svg" xmlns:xlink="http://www.w3.org/1999/xlink" version="1.1"><g transform="translate(466.66451256458583 300.09768542213754)"><path d="M85.2 -97.2C119.4 -92.4 162.4 -79.6 186 -50.2C209.5 -20.9 213.7 24.9 207.5 74.6C201.2 124.3 184.7 177.8 148.4 178.5C112.1 179.3 56 127.1 9.8 113.6C-36.4 100.2 -72.9 125.3 -99.4 121.4C-125.8 117.5 -142.3 84.6 -171.7 44C-201 3.5 -243.2 -44.6 -243.4 -90C-243.7 -135.4 -202.1 -178.1 -154.5 -178.7C-107 -179.2 -53.5 -137.6 -14 -118.3C25.5 -99.1 50.9 -102.1 85.2 -97.2" fill="#5fb0b7"></path></g></svg>