<svg id="visual" viewBox="0 0 900 600" width="900" height="600" xmlns="http://www.w3.org/2000/svg" xmlns:xlink="http://www.w3.org/1999/xlink" version="1.1"><g transform="translate(411.16405924404415 287.72122288337584)"><path d="M119.4 -156.8C157.3 -136.8 192.3 -105.3 219.5 -61.8C246.6 -18.3 266 37.2 256 87.9C246.1 138.7 206.8 184.6 159.2 199.3C111.7 214 55.8 197.5 11.1 182.3C-33.7 167.1 -67.4 153.1 -100.2 133.6C-133 114.1 -164.9 89 -176.2 56.7C-187.4 24.4 -177.8 -15.1 -159.7 -46C-141.6 -76.9 -114.9 -99.1 -86.8 -122.4C-58.8 -145.6 -29.4 -169.8 5.7 -177.6C40.8 -185.4 81.5 -176.9 119.4 -156.8" fill="#1b2a41"></path></g></svg>