<svg id="visual" viewBox="0 0 900 600" width="900" height="600" xmlns="http://www.w3.org/2000/svg" xmlns:xlink="http://www.w3.org/1999/xlink" version="1.1"><g transform="translate(462.97350605361544 289.34952069699295)"><path d="M116.6 -175.2C147.1 -138.4 164.8 -98.9 183.4 -56.2C201.9 -13.5 221.3 32.3 219 80.9C216.6 129.5 192.7 180.9 152.6 213.8C112.5 246.8 56.2 261.4 -1.3 263.1C-58.8 264.9 -117.6 253.8 -163.8 222.8C-210.1 191.9 -243.9 141.1 -245.1 90.7C-246.3 40.3 -214.9 -9.7 -187 -50C-159.1 -90.3 -134.7 -121 -104.1 -157.7C-73.5 -194.5 -36.7 -237.2 3.2 -241.6C43.1 -246 86.2 -212 116.6 -175.2" fill="#5fb0b7"></path></g></svg>