<svg id="visual" viewBox="0 0 900 600" width="900" height="600" xmlns="http://www.w3.org/2000/svg" xmlns:xlink="http://www.w3.org/1999/xlink" version="1.1"><g transform="translate(435.2434677165286 311.34537664417377)"><path d="M106.3 -139.9C153.9 -111.8 219.6 -102.3 229.8 -73.9C240 -45.6 194.6 1.4 163.5 39.4C132.3 77.4 115.2 106.2 90.3 135C65.4 163.7 32.7 192.4 0.4 191.8C-31.9 191.3 -63.9 161.6 -103.3 137.6C-142.8 113.6 -189.8 95.3 -199.7 64.9C-209.5 34.5 -182.3 -7.9 -157.5 -41C-132.7 -74 -110.5 -97.7 -84.6 -132.8C-58.8 -167.9 -29.4 -214.5 0 -214.5C29.4 -214.5 58.8 -167.9 106.3 -139.9" fill="#1b2a41"></path></g></svg>