<svg id="visual" viewBox="0 0 900 600" width="900" height="600" xmlns="http://www.w3.org/2000/svg" xmlns:xlink="http://www.w3.org/1999/xlink" version="1.1"><g transform="translate(468.55723463735956 312.09331238054915)"><path d="M149.7 -218.4C181.9 -182.7 187.5 -122.7 181.9 -74.5C176.3 -26.4 159.5 10 148.6 49.8C137.8 89.7 133 133 109.2 166.5C85.4 199.9 42.7 223.5 -6.5 232.4C-55.6 241.3 -111.3 235.5 -136.3 202.5C-161.4 169.4 -155.8 109.1 -171 56.9C-186.1 4.6 -221.9 -39.6 -220.9 -80.7C-219.8 -121.9 -181.9 -160.1 -139 -192.3C-96 -224.5 -48 -250.7 5.4 -258.2C58.8 -265.6 117.6 -254.1 149.7 -218.4" fill="#8de969"></path></g></svg>