<svg id="visual" viewBox="0 0 900 600" width="900" height="600" xmlns="http://www.w3.org/2000/svg" xmlns:xlink="http://www.w3.org/1999/xlink" version="1.1"><g transform="translate(461.37181588830686 265.0467992286037)"><path d="M115.4 -154C148.5 -134.8 173.7 -99.7 190.2 -59.3C206.7 -19 214.6 26.7 206.5 71.8C198.3 117 174.1 161.6 137 195.4C99.9 229.2 50 252.1 9.8 238.6C-30.4 225.1 -60.7 175.3 -108.3 144.9C-155.8 114.5 -220.6 103.6 -230.9 74.4C-241.3 45.2 -197.2 -2.3 -164.3 -37.9C-131.5 -73.6 -109.8 -97.5 -84.3 -119.2C-58.8 -140.9 -29.4 -160.5 5.9 -168.5C41.1 -176.6 82.3 -173.3 115.4 -154" fill="#0c1b21"></path></g></svg>