<svg id="visual" viewBox="0 0 900 600" width="900" height="600" xmlns="http://www.w3.org/2000/svg" xmlns:xlink="http://www.w3.org/1999/xlink" version="1.1"><g transform="translate(445.8299274368273 300.43271268188875)"><path d="M121.6 -182.7C149.2 -147.4 157.3 -100.6 181.4 -52.8C205.4 -4.9 245.4 43.9 232.5 73.1C219.6 102.3 153.9 111.8 106.3 143.9C58.8 175.9 29.4 230.5 -5.3 237.7C-40 245 -79.9 205 -123.2 171.6C-166.5 138.1 -213.1 111.3 -224 73.7C-234.9 36.2 -210.2 -12.1 -188.4 -55.6C-166.5 -99.2 -147.6 -138.2 -116.7 -172.5C-85.8 -206.8 -42.9 -236.4 2.1 -239.2C47 -242.1 94 -218.1 121.6 -182.7" fill="#0c1b21"></path></g></svg>