<svg id="visual" viewBox="0 0 900 600" width="900" height="600" xmlns="http://www.w3.org/2000/svg" xmlns:xlink="http://www.w3.org/1999/xlink" version="1.1"><g transform="translate(450.2169824628113 302.14843591641176)"><path d="M141.2 -171C187.2 -160.9 231.5 -125.3 234.9 -83.6C238.4 -42 201 5.6 177.7 51.6C154.3 97.7 145 142.3 117.8 159.8C90.5 177.3 45.3 167.6 2.1 164.8C-41.1 162 -82.3 165.9 -108.3 148C-134.3 130.2 -145.1 90.4 -172.1 46.7C-199.1 2.9 -242.2 -44.9 -234.7 -78.8C-227.2 -112.8 -169.2 -132.8 -121.6 -142.4C-74.1 -151.9 -37 -151 5.3 -158.3C47.6 -165.5 95.2 -181.1 141.2 -171" fill="#8de969"></path></g></svg>