<svg id="visual" viewBox="0 0 900 600" width="900" height="600" xmlns="http://www.w3.org/2000/svg" xmlns:xlink="http://www.w3.org/1999/xlink" version="1.1"><g transform="translate(469.2466368395622 323.4626963372643)"><path d="M125 -176.7C166.5 -141.9 207.9 -111.4 210.8 -75C213.7 -38.5 178.2 3.9 163.1 53.8C148 103.7 153.4 161.1 129.6 183.2C105.8 205.3 52.9 192.1 -2.4 195.4C-57.6 198.6 -115.2 218.2 -162.8 203.9C-210.3 189.5 -247.8 141.1 -249.4 91.6C-251.1 42 -216.8 -8.7 -193.6 -57.5C-170.3 -106.4 -158 -153.5 -127.6 -192C-97.2 -230.4 -48.6 -260.2 -3.4 -255.5C41.7 -250.8 83.5 -211.5 125 -176.7" fill="#8de969"></path></g></svg>