<svg id="visual" viewBox="0 0 900 600" width="900" height="600" xmlns="http://www.w3.org/2000/svg" xmlns:xlink="http://www.w3.org/1999/xlink" version="1.1"><g transform="translate(468.4664527620015 297.405844271899)"><path d="M137.9 -194.8C175.4 -162.5 200.4 -117.9 212 -71.4C223.5 -25 221.6 23.2 206.1 65.7C190.5 108.3 161.4 145.2 124.8 179.9C88.2 214.7 44.1 247.3 -1.7 249.6C-47.4 251.9 -94.8 223.9 -142.4 192.6C-189.9 161.4 -237.6 127.1 -251.6 82.2C-265.7 37.3 -246 -18.1 -221.6 -65.4C-197.1 -112.7 -167.9 -151.8 -130.2 -184C-92.5 -216.3 -46.2 -241.6 2 -244.3C50.2 -247 100.3 -227.1 137.9 -194.8" fill="#5fb0b7"></path></g></svg>