<svg id="visual" viewBox="0 0 900 600" width="900" height="600" xmlns="http://www.w3.org/2000/svg" xmlns:xlink="http://www.w3.org/1999/xlink" version="1.1"><g transform="translate(407.25138399443654 299.756821925822)"><path d="M126.3 -171.5C169.9 -142.1 215.7 -113.6 238.8 -70.9C261.9 -28.2 262.2 28.5 245.9 80.3C229.7 132.1 196.8 178.9 153.1 202.2C109.3 225.5 54.7 225.2 -2.1 228.1C-58.8 230.9 -117.6 236.8 -146.4 208.7C-175.3 180.6 -174.2 118.4 -168.6 70.2C-163 22 -152.8 -12.2 -144 -49.2C-135.3 -86.2 -127.9 -126 -104.1 -161.8C-80.3 -197.6 -40.2 -229.3 0.6 -230.1C41.3 -230.9 82.7 -200.8 126.3 -171.5" fill="#1b2a41"></path></g></svg>