<svg id="visual" viewBox="0 0 900 600" width="900" height="600" xmlns="http://www.w3.org/2000/svg" xmlns:xlink="http://www.w3.org/1999/xlink" version="1.1"><g transform="translate(454.24456685449724 277.2278541040132)"><path d="M121.8 -156C157 -142.1 184.1 -105.3 208.7 -60.5C233.3 -15.7 255.5 37.3 235 68.9C214.5 100.6 151.4 111 105.1 135.8C58.8 160.6 29.4 199.8 -5.8 207.7C-40.9 215.7 -81.9 192.4 -117.6 164.1C-153.2 135.9 -183.6 102.7 -210.7 59.1C-237.8 15.5 -261.5 -38.6 -247.3 -79.7C-233.1 -120.9 -180.9 -149 -133.4 -158.9C-85.8 -168.8 -42.9 -160.4 0.2 -160.7C43.3 -160.9 86.6 -169.9 121.8 -156" fill="#0c1b21"></path></g></svg>