<svg id="visual" viewBox="0 0 900 600" width="900" height="600" xmlns="http://www.w3.org/2000/svg" xmlns:xlink="http://www.w3.org/1999/xlink" version="1.1"><g transform="translate(442.93686805246233 358.9748506775258)"><path d="M67.9 -117.8C92.3 -75.7 119.4 -61.7 135.6 -37.9C151.9 -14.1 157.2 19.4 140.2 37.4C123.1 55.5 83.6 58.1 56.5 62.3C29.4 66.5 14.7 72.2 -14 91.5C-42.7 110.8 -85.4 143.6 -100.8 135.6C-116.2 127.6 -104.2 78.8 -104.9 42.2C-105.6 5.7 -118.9 -18.6 -128.3 -57.8C-137.7 -96.9 -143.2 -150.8 -121.2 -193.6C-99.1 -236.5 -49.6 -268.2 -13.9 -249.1C21.7 -229.9 43.5 -159.9 67.9 -117.8" fill="#5fb0b7"></path></g></svg>