<svg width="50" height="50" viewBox="0 0 50 50" fill="none" xmlns="http://www.w3.org/2000/svg">
<g id="material-symbols:pie-chart">
<path id="Vector" d="M27.0833 22.9167V4.375C32.0486 4.89583 36.2417 6.875 39.6625 10.3125C43.0833 13.75 45.0708 17.9514 45.625 22.9167H27.0833ZM22.9688 45.5729C17.691 45.0521 13.2722 42.8299 9.7125 38.9062C6.15278 34.9826 4.37361 30.3472 4.375 25C4.375 19.6181 6.15486 14.9653 9.71459 11.0417C13.2743 7.11806 17.6924 4.89583 22.9688 4.375V45.5729ZM27.0833 45.5729V27.0312H45.625C45.1389 31.9965 43.1681 36.2069 39.7125 39.6625C36.2569 43.1181 32.0472 45.0882 27.0833 45.5729Z" fill="white"/>
</g>
</svg>
