<svg width="50" height="50" viewBox="0 0 50 50" fill="none" xmlns="http://www.w3.org/2000/svg">
<g id="oi:audio" clip-path="url(#clip0_64_617)">
<path id="Vector" d="M7.25 6.25C2.75 10.75 0 16.9375 0 23.8125C0 30.6875 2.6875 37.0625 7.25 41.5625L11.75 37.0625C8.375 33.6875 6.25 29 6.25 23.75C6.25 18.5625 8.3125 14.0625 11.75 10.6875L7.25 6.1875V6.25ZM42.8125 6.25L38.3125 10.75C41.6875 14.125 43.8125 18.625 43.8125 23.8125C43.8125 29 41.75 33.6875 38.3125 37.125L42.8125 41.625C47.3125 37.125 50.0625 30.75 50.0625 23.875C50.0625 17 47.375 10.8125 42.8125 6.3125V6.25ZM16.25 15.0625C14 17.3125 12.5625 20.4375 12.5625 23.875C12.5625 27.3125 14 30.625 16.25 32.875L20.5625 28.375C19.4375 27.25 18.8125 25.625 18.8125 23.875C18.8125 22.125 19.4375 20.75 20.5625 19.5625L16.25 15.0625ZM33.8125 15.0625L29.5 19.5625C30.625 20.6875 31.25 22.125 31.25 23.875C31.25 25.625 30.625 27.25 29.5 28.375L33.8125 32.875C36.0625 30.625 37.5 27.3125 37.5 23.875C37.5 20.4375 36.0625 17.3125 33.8125 15.0625Z" fill="white"/>
</g>
<defs>
<clipPath id="clip0_64_617">
<rect width="50" height="50" fill="white"/>
</clipPath>
</defs>
</svg>
