<svg width="50" height="50" viewBox="0 0 50 50" fill="none" xmlns="http://www.w3.org/2000/svg">
<g id="solar:dollar-broken">
<g id="Group">
<path id="Vector" d="M25 12.5V37.5M31.25 19.7917C31.25 16.9167 28.4521 14.5833 25 14.5833C21.5479 14.5833 18.75 16.9167 18.75 19.7917C18.75 22.6667 21.5479 25 25 25C28.4521 25 31.25 27.3333 31.25 30.2083C31.25 33.0833 28.4521 35.4167 25 35.4167C21.5479 35.4167 18.75 33.0833 18.75 30.2083" stroke="white" stroke-width="1.5" stroke-linecap="round"/>
<path id="Vector_2" d="M14.5833 6.95415C17.749 5.12269 21.3427 4.16102 25 4.16665C36.5062 4.16665 45.8333 13.4937 45.8333 25C45.8333 36.5062 36.5062 45.8333 25 45.8333C13.4937 45.8333 4.16666 36.5062 4.16666 25C4.16666 21.2062 5.18124 17.6458 6.95416 14.5833" stroke="white" stroke-width="1.5" stroke-linecap="round"/>
</g>
</g>
</svg>
